<?xml version="1.0" standalone="no"?>
<!DOCTYPE svg PUBLIC "-//W3C//DTD SVG 20010904//EN"
 "http://www.w3.org/TR/2001/REC-SVG-20010904/DTD/svg10.dtd">
<svg version="1.0" xmlns="http://www.w3.org/2000/svg"
 width="1024.000000pt" height="1024.000000pt" viewBox="0 0 1024.000000 1024.000000"
 preserveAspectRatio="xMidYMid meet">
<metadata>
Created by potrace 1.11, written by Peter Selinger 2001-2013
</metadata>
<g transform="translate(0.000000,1024.000000) scale(0.100000,-0.100000)"
fill="#000000" stroke="none">
<path d="M5030 10083 c0 -4 -44 -8 -98 -9 -88 -1 -222 -9 -312 -18 -124 -14
-255 -32 -255 -36 0 0 -18 -3 -40 -5 -45 -5 -88 -11 -125 -20 -14 -3 -38 -8
-55 -10 -16 -3 -37 -8 -45 -10 -8 -2 -26 -6 -40 -9 -62 -12 -85 -18 -196 -46
-66 -17 -182 -52 -259 -77 -77 -25 -146 -46 -152 -46 -7 0 -13 -4 -13 -9 0 -4
-7 -8 -15 -8 -24 0 -205 -73 -368 -149 -49 -23 -93 -41 -98 -41 -5 0 -9 -4 -9
-10 0 -5 -6 -10 -14 -10 -16 0 -129 -57 -167 -84 -13 -9 -31 -16 -41 -16 -9 0
-21 -6 -25 -13 -4 -6 -28 -22 -53 -35 -121 -62 -560 -361 -626 -426 -6 -6 -28
-24 -49 -41 -21 -16 -49 -39 -61 -50 -13 -11 -49 -42 -81 -70 -76 -65 -377
-367 -427 -427 -21 -26 -52 -62 -68 -80 -17 -18 -46 -53 -67 -78 -20 -25 -39
-46 -43 -48 -5 -2 -8 -8 -8 -13 0 -5 -8 -17 -17 -27 -10 -10 -25 -29 -33 -42
-8 -13 -23 -32 -32 -42 -10 -10 -18 -21 -18 -25 0 -4 -8 -16 -19 -27 -28 -32
-171 -245 -171 -256 0 -6 -4 -10 -10 -10 -5 0 -10 -4 -10 -10 0 -5 -17 -36
-37 -67 -21 -32 -38 -60 -38 -63 0 -3 -20 -38 -43 -78 -63 -107 -172 -329
-235 -477 -52 -124 -68 -164 -72 -175 -1 -3 -7 -18 -13 -33 -7 -16 -12 -34
-12 -41 0 -7 -3 -15 -6 -19 -9 -8 -62 -167 -57 -167 3 0 1 -6 -4 -12 -8 -10
-33 -87 -38 -118 -1 -3 -7 -25 -14 -50 -7 -25 -15 -54 -18 -65 -8 -38 -11 -50
-13 -50 -2 0 -6 -18 -15 -64 -3 -19 -9 -39 -12 -45 -4 -6 -8 -22 -9 -36 -1
-14 -9 -58 -18 -98 -9 -40 -18 -89 -21 -110 -2 -20 -7 -48 -10 -62 -3 -14 -8
-45 -11 -70 -2 -25 -6 -52 -9 -60 -2 -8 -7 -46 -11 -85 -3 -38 -8 -79 -10 -89
-25 -134 -25 -808 1 -991 3 -22 7 -60 9 -85 2 -25 7 -61 10 -80 3 -19 8 -51
11 -70 2 -19 7 -48 10 -65 3 -16 7 -46 9 -65 3 -19 5 -35 6 -35 1 0 3 -9 5
-20 5 -29 26 -137 29 -155 2 -8 6 -22 9 -30 3 -8 13 -46 21 -85 9 -38 18 -77
20 -85 3 -8 11 -40 20 -70 29 -109 52 -181 72 -235 4 -11 8 -24 10 -30 1 -5 9
-27 18 -47 9 -21 13 -38 10 -38 -4 0 -2 -6 3 -12 5 -7 18 -35 28 -63 20 -58
90 -226 111 -269 8 -16 14 -35 14 -42 0 -7 3 -14 8 -16 4 -1 18 -28 32 -58 14
-30 29 -58 35 -62 5 -4 7 -8 3 -8 -4 0 3 -19 16 -42 13 -24 39 -72 58 -108 20
-36 45 -81 57 -100 11 -19 31 -54 43 -78 12 -23 26 -42 30 -42 4 0 8 -5 8 -10
0 -6 18 -38 40 -71 22 -33 40 -63 40 -65 0 -3 6 -12 12 -19 30 -33 38 -45 38
-55 0 -5 5 -10 10 -10 6 0 10 -4 10 -10 0 -11 146 -210 166 -226 8 -6 14 -16
14 -22 0 -6 3 -12 8 -14 4 -1 52 -57 107 -123 104 -125 360 -387 478 -490 38
-33 74 -65 80 -70 7 -6 37 -30 67 -55 30 -25 57 -47 60 -50 3 -3 52 -41 110
-84 58 -43 113 -84 122 -91 9 -7 27 -19 40 -26 13 -6 25 -15 28 -19 9 -11 273
-176 345 -215 39 -21 76 -43 84 -49 7 -5 19 -11 25 -12 7 -1 31 -13 53 -27 23
-14 43 -24 45 -21 3 2 11 -2 18 -11 7 -8 16 -15 20 -15 4 0 54 -22 111 -48 57
-27 129 -59 159 -71 30 -13 67 -30 82 -37 14 -8 31 -14 38 -14 11 0 47 -14
105 -41 11 -6 30 -11 43 -12 12 0 22 -5 22 -9 0 -4 3 -7 8 -6 4 0 14 -2 22 -5
18 -7 243 -76 268 -82 9 -3 79 -20 154 -39 120 -31 263 -62 323 -71 11 -2 38
-6 60 -9 129 -21 218 -33 296 -40 26 -2 52 -7 58 -10 6 -4 11 -2 11 4 0 6 5 8
13 3 14 -9 51 -12 210 -16 64 -2 120 -7 123 -10 4 -3 14 -2 24 3 10 5 20 6 24
3 8 -8 91 -7 104 1 6 3 13 2 17 -4 4 -6 11 -7 18 -3 6 4 61 8 122 9 60 1 137
5 170 9 33 3 87 8 120 11 69 7 79 8 160 18 70 9 100 14 100 16 0 1 9 3 20 4
32 4 109 16 141 22 16 3 38 7 49 9 11 2 38 8 60 14 22 5 51 12 65 15 64 13
230 55 250 63 8 3 24 8 35 10 38 8 50 11 50 13 0 1 7 3 15 5 23 6 112 36 135
45 11 4 56 20 100 35 70 24 104 38 225 88 14 5 30 11 35 12 19 5 304 142 317
153 7 6 25 13 41 17 15 4 27 11 27 15 0 4 8 10 18 13 18 6 123 64 182 100 19
12 43 27 52 32 104 60 472 317 508 355 3 3 28 23 55 45 28 22 57 46 66 55 9 8
38 33 64 55 65 54 389 378 446 446 159 185 369 458 369 478 0 5 4 11 8 13 12
4 107 151 104 161 -1 4 2 7 8 7 5 0 10 7 10 15 0 8 3 15 8 15 4 0 12 10 18 23
6 12 34 62 63 111 76 131 214 406 211 422 -1 4 3 10 10 14 6 4 12 13 14 21 4
27 39 109 46 109 4 0 7 6 7 13 0 10 23 77 79 222 4 11 8 22 9 25 1 3 4 12 8
20 9 21 48 142 52 160 1 8 15 56 30 105 25 85 29 100 39 150 2 11 12 49 21 84
9 35 18 77 20 92 2 16 6 36 9 46 3 10 7 34 10 53 3 19 8 46 11 60 2 13 7 40
10 60 3 20 7 45 9 56 2 12 7 45 10 75 4 30 9 70 11 89 6 45 13 112 22 225 10
117 10 614 0 730 -10 115 -13 138 -32 297 -14 114 -78 453 -85 453 -1 0 -3 11
-5 25 -2 14 -8 43 -14 65 -7 22 -14 48 -16 59 -2 10 -12 44 -21 75 -10 31 -18
62 -20 69 -12 64 -145 428 -201 552 -28 61 -46 102 -48 110 -2 12 -146 290
-179 348 -20 35 -36 66 -36 68 0 3 -5 10 -10 17 -6 7 -43 64 -81 127 -39 63
-74 117 -78 120 -4 3 -10 12 -13 20 -3 8 -49 73 -102 144 -53 71 -96 133 -96
138 0 5 -4 6 -10 3 -5 -3 -10 -1 -10 4 0 10 -13 29 -45 65 -6 6 -30 36 -55 66
-79 95 -131 151 -290 310 -160 160 -176 175 -295 274 -38 33 -72 62 -75 66 -3
3 -21 17 -40 30 -19 13 -37 27 -40 30 -11 12 -140 110 -145 110 -3 0 -11 5
-18 10 -48 40 -66 54 -99 72 -21 12 -38 25 -38 30 0 4 -4 8 -10 8 -9 0 -72 39
-97 60 -7 5 -15 10 -18 10 -4 0 -25 12 -48 28 -55 35 -73 46 -127 75 -25 14
-70 39 -100 56 -81 46 -263 134 -387 187 -18 8 -48 20 -65 28 -103 45 -293
113 -458 164 -84 25 -286 79 -325 86 -16 3 -59 13 -95 21 -36 8 -76 17 -90 19
-14 2 -52 8 -85 15 -33 6 -80 13 -105 16 -25 3 -57 7 -71 10 -14 3 -50 8 -80
11 -30 3 -72 7 -94 9 -116 12 -200 17 -285 19 -53 1 -101 5 -107 9 -7 4 -14 3
-17 -2 -4 -5 -18 -6 -34 -2 -15 5 -36 5 -47 1 -11 -4 -25 -3 -32 2 -7 5 -14 5
-18 -2 -4 -7 -12 -7 -26 0 -10 6 -19 7 -19 3z m82 -967 c26 -1 48 3 48 7 0 5
5 5 11 2 6 -4 65 -9 132 -11 67 -3 138 -6 157 -8 19 -2 64 -7 100 -10 36 -4
81 -9 100 -12 19 -3 49 -7 65 -9 17 -2 46 -7 65 -10 19 -3 46 -8 60 -10 37 -6
317 -72 365 -87 22 -6 42 -12 45 -13 31 -8 99 -29 115 -35 22 -9 53 -19 60
-20 3 0 25 -9 50 -20 25 -11 47 -19 50 -20 3 0 20 -6 38 -13 17 -8 50 -20 72
-28 22 -7 48 -20 58 -28 9 -8 17 -11 17 -7 0 4 17 -2 38 -13 20 -11 69 -34
107 -53 139 -66 501 -277 525 -307 3 -3 32 -24 65 -46 33 -22 65 -44 71 -50 6
-5 26 -21 44 -35 138 -103 456 -403 566 -535 75 -89 83 -100 104 -125 12 -14
53 -68 91 -120 39 -52 76 -102 82 -110 7 -8 27 -40 46 -70 18 -30 36 -57 40
-60 6 -5 20 -28 48 -80 8 -14 23 -38 33 -55 10 -16 31 -55 47 -85 15 -30 31
-57 34 -60 6 -6 21 -43 19 -49 -1 -2 2 -7 7 -10 37 -27 260 -593 288 -731 2
-8 15 -60 28 -115 24 -93 52 -231 62 -300 3 -16 7 -39 9 -50 2 -12 7 -48 11
-80 4 -33 8 -71 10 -84 27 -169 27 -670 0 -881 -2 -19 -7 -55 -9 -80 -3 -25
-7 -54 -10 -65 -2 -11 -7 -42 -10 -70 -4 -27 -9 -57 -11 -65 -2 -8 -7 -28 -10
-45 -6 -39 -10 -55 -30 -144 -9 -40 -19 -80 -20 -90 -2 -9 -4 -17 -5 -18 -2
-2 -4 -7 -5 -13 -1 -5 -4 -13 -5 -17 -2 -5 -4 -12 -5 -18 -5 -31 -27 -102 -35
-117 -6 -10 -10 -27 -10 -38 0 -11 -5 -20 -11 -20 -5 0 -7 -4 -4 -10 3 -5 -1
-24 -9 -42 -8 -18 -23 -60 -34 -93 -25 -73 -67 -174 -117 -280 -21 -44 -39
-82 -39 -85 -5 -19 -90 -176 -97 -178 -5 -2 -9 -9 -9 -15 0 -27 -178 -305
-289 -452 -41 -55 -66 -86 -194 -240 -55 -65 -306 -316 -382 -380 -129 -110
-194 -161 -271 -215 -19 -14 -57 -42 -84 -62 -27 -21 -52 -38 -55 -38 -3 0
-32 -18 -64 -39 -32 -22 -74 -49 -94 -60 -20 -12 -52 -29 -69 -40 -126 -72
-162 -91 -174 -91 -8 0 -14 -3 -14 -8 0 -4 -15 -14 -32 -21 -18 -8 -67 -30
-108 -50 -41 -19 -79 -36 -85 -37 -5 -1 -32 -12 -60 -25 -27 -13 -54 -24 -60
-25 -5 -2 -53 -19 -105 -38 -52 -20 -101 -36 -108 -36 -7 0 -23 -5 -35 -12
-12 -6 -29 -13 -37 -14 -8 -1 -64 -16 -125 -33 -110 -31 -319 -78 -385 -87
-19 -2 -46 -6 -60 -8 -14 -2 -50 -7 -80 -11 -30 -3 -66 -8 -80 -10 -63 -10
-171 -17 -269 -20 -60 -1 -113 -5 -120 -9 -6 -4 -11 -2 -11 4 0 6 -4 9 -8 6
-16 -10 -219 -5 -367 8 -126 12 -172 17 -196 21 -37 7 -111 17 -126 18 -7 0
-13 4 -13 8 0 5 -6 6 -13 3 -21 -8 -417 82 -497 113 -8 4 -18 7 -22 8 -5 2
-10 4 -13 5 -3 1 -8 3 -12 4 -5 1 -39 13 -78 26 -38 13 -72 25 -75 25 -3 1
-14 5 -25 10 -11 4 -42 17 -70 27 -27 11 -73 30 -103 44 -29 13 -55 24 -58 24
-12 0 -290 143 -340 175 -29 19 -54 31 -54 27 0 -4 -4 -2 -8 4 -4 6 -26 21
-49 34 -24 13 -43 28 -43 34 0 5 -3 6 -7 3 -3 -4 -13 -1 -21 5 -8 7 -22 17
-31 23 -65 39 -91 58 -91 66 0 5 -5 9 -12 9 -11 0 -182 124 -220 159 -9 9 -30
27 -48 40 -17 14 -52 43 -76 66 -24 23 -44 40 -44 37 0 -7 -293 291 -337 343
-23 28 -50 60 -60 72 -30 35 -46 56 -77 98 -17 22 -33 42 -36 45 -3 3 -17 21
-30 40 -13 19 -27 37 -30 40 -8 8 -180 268 -180 273 0 3 -18 35 -40 71 -22 36
-40 70 -40 75 0 5 -3 11 -7 13 -5 2 -18 23 -30 48 -83 171 -109 225 -140 300
-36 87 -73 183 -97 255 -35 102 -79 248 -91 300 -1 6 -5 21 -8 35 -23 94 -37
160 -43 194 -3 21 -8 48 -10 60 -5 20 -11 54 -18 101 -3 18 -12 87 -21 160 -2
17 -4 30 -5 30 -3 0 -22 370 -21 400 2 41 2 102 1 110 -1 6 -1 15 0 20 1 6 4
42 6 80 6 120 13 221 18 256 3 19 8 56 11 82 4 27 9 59 11 70 3 12 7 40 10 62
8 57 12 80 14 80 1 0 4 11 6 25 8 54 11 66 17 85 3 11 8 31 11 45 4 22 29 127
35 148 1 1 1 4 2 7 0 2 5 19 10 37 6 18 12 40 14 48 5 21 54 172 62 190 3 8 7
17 7 20 5 17 42 113 62 157 13 28 24 55 24 58 0 4 14 36 30 72 17 35 30 69 30
74 0 5 4 9 10 9 5 0 9 3 8 8 -2 7 59 131 102 207 13 22 37 65 53 95 17 30 34
59 39 65 5 5 41 60 81 120 39 61 74 112 77 115 3 3 17 21 30 40 13 19 29 40
35 47 5 7 20 25 32 40 115 149 169 209 344 383 141 140 251 241 272 249 5 2
17 11 27 20 31 30 65 56 155 121 50 36 92 67 95 70 10 12 239 152 325 200 59
33 312 160 319 160 3 0 28 11 55 24 27 13 62 27 78 31 36 11 32 9 78 30 22 10
46 18 53 18 6 0 12 4 12 9 0 5 4 7 8 4 4 -2 21 1 37 9 17 7 57 20 90 30 33 9
71 21 85 26 29 10 211 57 249 64 34 6 70 13 101 20 50 11 76 15 110 21 19 2
46 7 60 9 102 19 302 37 432 39 49 0 88 5 88 9 0 5 5 5 12 1 6 -4 33 -8 60 -8z"/>
<path d="M3495 6721 c-4 -3 -25 -6 -48 -8 -37 -2 -72 -7 -87 -13 -3 -1 -9 -2
-14 -1 -4 1 -13 -2 -20 -7 -6 -5 -30 -14 -53 -22 -24 -7 -43 -18 -43 -23 0 -6
-3 -8 -6 -4 -11 10 -95 -52 -159 -117 -51 -51 -136 -174 -127 -184 2 -1 -4
-15 -13 -30 -44 -78 -55 -288 -20 -407 49 -168 176 -321 327 -394 85 -41 152
-61 224 -65 23 -2 46 -6 53 -10 6 -4 11 -4 11 1 0 4 21 8 48 9 58 1 118 11
142 24 10 6 28 10 39 10 10 0 21 3 23 8 2 4 29 20 61 36 34 17 87 58 125 96
71 70 114 120 105 120 -3 0 1 8 10 18 8 9 16 20 17 24 0 4 10 29 21 55 23 52
51 172 43 184 -2 4 0 10 6 14 6 4 8 9 6 13 -3 6 -15 107 -19 172 -1 14 -4 27
-7 30 -5 5 -29 66 -34 85 -16 69 -132 209 -228 275 -32 22 -60 40 -62 40 -2 0
-21 8 -42 17 -22 9 -42 18 -46 19 -5 1 -10 3 -13 4 -6 3 -6 3 -60 14 -22 5
-56 10 -75 11 -19 2 -35 4 -35 5 0 5 -46 6 -50 1z"/>
<path d="M6727 6644 c-3 -3 -45 -8 -94 -9 -96 -4 -110 -6 -228 -35 -176 -44
-343 -120 -487 -220 -78 -55 -258 -233 -258 -256 0 -8 -4 -14 -9 -14 -15 0
-103 -189 -117 -252 -1 -5 -2 -9 -4 -10 -2 -3 -9 -66 -11 -93 0 -5 3 -23 6
-40 4 -16 8 -36 8 -42 0 -7 4 -13 9 -13 4 0 8 -6 8 -13 0 -20 70 -87 109 -104
49 -21 134 -24 185 -7 40 14 56 27 181 139 172 155 316 231 475 252 19 3 51 8
71 12 20 5 97 7 170 6 188 -3 330 -37 475 -114 30 -15 51 -31 47 -35 -3 -3 0
-6 8 -6 8 0 32 -16 54 -36 200 -177 194 -173 240 -202 34 -23 51 -26 115 -26
64 0 81 4 118 27 74 47 110 100 119 173 6 50 -18 171 -46 234 -11 25 -21 50
-22 55 -1 6 -10 21 -20 34 -11 13 -19 28 -19 32 0 5 -6 17 -14 26 -8 10 -36
44 -61 76 -25 31 -50 57 -56 57 -5 0 -9 7 -9 15 0 8 -3 15 -7 15 -5 0 -24 15
-44 33 -67 59 -133 107 -148 107 -5 0 -11 4 -13 9 -5 15 -155 90 -252 128 -82
31 -130 45 -196 59 -14 2 -32 7 -40 9 -37 10 -90 17 -150 19 -36 1 -71 5 -76
9 -6 3 -14 4 -17 1z"/>
<path d="M2859 4151 c-122 -35 -201 -132 -205 -253 -2 -52 20 -167 47 -243 25
-69 74 -180 81 -183 5 -2 6 -7 3 -12 -3 -4 2 -13 10 -20 8 -7 15 -17 15 -22 0
-33 170 -256 275 -362 111 -112 321 -280 415 -332 19 -10 37 -21 40 -25 11
-12 86 -54 93 -51 4 1 7 -3 7 -9 0 -5 5 -7 10 -4 6 3 10 1 10 -4 0 -6 6 -11
14 -11 8 0 21 -6 28 -13 11 -11 34 -24 58 -32 3 -1 39 -18 82 -38 192 -90 489
-194 603 -211 11 -2 20 -5 20 -6 0 -1 9 -4 20 -5 11 -2 51 -10 90 -18 38 -9
73 -13 77 -11 4 3 8 1 8 -3 0 -5 12 -8 28 -8 15 1 31 -1 36 -4 5 -2 21 -5 35
-6 14 -1 51 -5 81 -8 52 -7 193 -18 215 -18 6 0 54 1 108 3 55 2 101 -1 104
-5 3 -4 10 -4 16 2 7 5 44 12 82 15 83 6 149 14 185 22 14 3 39 7 55 9 17 3
41 7 55 10 23 5 72 14 95 19 6 1 16 5 23 9 6 5 12 6 12 3 0 -2 15 0 33 5 17 6
43 12 57 15 13 3 29 9 36 15 6 5 13 7 16 4 3 -3 25 2 49 11 24 8 52 17 61 19
9 2 26 9 37 15 12 6 21 8 21 5 0 -3 13 1 30 10 16 8 33 16 37 16 13 2 35 11
80 30 23 11 44 19 47 19 2 0 48 20 101 45 52 24 98 44 102 44 3 -1 9 3 12 8 3
4 29 19 56 33 28 14 52 27 55 30 3 3 21 14 40 24 41 23 173 107 180 116 3 3
35 28 73 55 37 27 67 52 67 57 0 4 5 8 10 8 38 0 370 358 370 399 0 6 4 11 8
11 8 0 86 129 87 143 0 4 5 11 10 15 6 4 11 14 13 22 2 8 10 29 17 45 53 115
95 277 91 354 -3 66 -31 132 -75 177 -38 39 -109 75 -153 78 -19 1 -39 6 -45
9 -7 4 -14 3 -18 -3 -4 -6 -10 -8 -15 -5 -4 3 -35 -3 -69 -14 -33 -10 -63 -16
-66 -13 -3 3 -5 1 -5 -5 0 -5 -6 -10 -12 -10 -7 0 -78 -16 -158 -36 -80 -20
-163 -39 -185 -43 -22 -3 -43 -8 -46 -10 -4 -2 -31 -6 -60 -10 -30 -3 -57 -8
-60 -10 -9 -5 -235 -38 -339 -49 -25 -3 -58 -8 -75 -10 -26 -5 -82 -10 -190
-18 -17 -2 -36 -6 -43 -10 -7 -5 -12 -3 -12 3 0 6 -4 9 -9 5 -41 -24 -1091
-55 -1091 -31 0 5 -6 3 -14 -3 -8 -7 -16 -8 -19 -4 -3 4 -53 8 -111 8 -58 0
-106 2 -106 5 0 3 -37 6 -83 6 -45 1 -113 4 -152 8 -133 11 -180 15 -240 20
-33 3 -85 8 -115 11 -30 3 -66 8 -80 10 -14 3 -52 8 -85 12 -33 3 -62 8 -65
12 -3 3 -18 6 -35 5 -16 0 -50 4 -75 9 -25 4 -58 11 -75 13 -129 20 -426 89
-547 127 -27 8 -48 13 -48 10 0 -3 -6 -1 -12 4 -7 5 -20 9 -28 8 -8 -1 -24 2
-35 5 -11 4 -45 0 -76 -9z"/>
</g>
</svg>
